<?xml version="1.0" encoding="utf-8"?>
<!-- Svg Vector Icons : http://www.onlinewebfonts.com/icon -->
<!DOCTYPE svg PUBLIC "-//W3C//DTD SVG 1.1//EN" "http://www.w3.org/Graphics/SVG/1.1/DTD/svg11.dtd">
<svg version="1.1" xmlns="http://www.w3.org/2000/svg" xmlns:xlink="http://www.w3.org/1999/xlink" x="0px" y="0px" viewBox="0 0 1000 1000" enable-background="new 0 0 1000 1000" xml:space="preserve">
<metadata> Svg Vector Icons : http://www.onlinewebfonts.com/icon </metadata>
<g><path d="M899.2,170.3l-1.6,295.8c0,0-4.9,160.3-176.2,160.3H481L373.9,737.1l176.2,1.6L792.2,990l8.3-257.8c0,0,189.4,13.2,189.4-155.3V327.3C989.8,327.3,998.1,226.5,899.2,170.3L899.2,170.3z M690.1,585.1c87.3,0,158.1-71,158.1-158.7V168.7C848.2,81,777.4,10,690.1,10h-522C80.8,10,10,81,10,168.7v257.8c0,87.6,70.8,158.7,158.1,158.7h13.3l1.5,234.7l261.2-234.7H690.1L690.1,585.1z"/></g>
</svg>