<?xml version="1.0" encoding="utf-8"?>
<!-- Svg Vector Icons : http://www.onlinewebfonts.com/icon -->
<!DOCTYPE svg PUBLIC "-//W3C//DTD SVG 1.1//EN" "http://www.w3.org/Graphics/SVG/1.1/DTD/svg11.dtd">
<svg version="1.1" xmlns="http://www.w3.org/2000/svg" xmlns:xlink="http://www.w3.org/1999/xlink" x="0px" y="0px" viewBox="0 0 1000 1000" enable-background="new 0 0 1000 1000" xml:space="preserve">
<metadata> Svg Vector Icons : http://www.onlinewebfonts.com/icon </metadata>
<g><path d="M281.2,193.8c25.4,0,45.9-20.6,45.9-45.9V55.9c0-25.4-20.6-45.9-45.9-45.9c-25.4,0-45.9,20.6-45.9,45.9v91.9C235.2,173.2,255.8,193.8,281.2,193.8L281.2,193.8z"/><path d="M718.8,193.8c25.4,0,45.9-20.6,45.9-45.9V55.9c0-25.4-20.6-45.9-45.9-45.9c-25.4,0-45.9,20.6-45.9,45.9v91.9C672.9,173.2,693.5,193.8,718.8,193.8L718.8,193.8z"/><path d="M944.1,147.8v796.3H55.9V147.8h102.7v15.3c0,59.1,48.1,107.2,107.2,107.2h30.6c59.1,0,107.2-48.1,107.2-107.2v-15.3h192.7v15.3c0,59.1,48.1,107.2,107.2,107.2h30.6c59.1,0,107.2-48.1,107.2-107.2v-15.3H944.1 M959.4,101.9h-164v61.2c0,33.8-27.4,61.2-61.2,61.2h-30.6c-33.8,0-61.3-27.4-61.3-61.2v-61.2H357.7v61.2c0,33.8-27.4,61.2-61.2,61.2h-30.6c-33.8,0-61.2-27.4-61.2-61.2v-61.2h-164c-16.9,0-30.6,13.7-30.6,30.6v826.9c0,16.9,13.7,30.6,30.6,30.6h918.8c16.9,0,30.6-13.7,30.6-30.6V132.5C990,115.6,976.3,101.9,959.4,101.9L959.4,101.9L959.4,101.9z"/><path d="M300.9,829.9c0,16.9-13.7,30.6-30.6,30.6H147.8c-16.9,0-30.6-13.7-30.6-30.6v-30.6c0-16.9,13.7-30.6,30.6-30.6h122.5c16.9,0,30.6,13.7,30.6,30.6V829.9L300.9,829.9z"/><path d="M300.9,645.5c0,16.9-13.7,30.6-30.6,30.6H147.8c-16.9,0-30.6-13.7-30.6-30.6v-30.6c0-16.9,13.7-30.6,30.6-30.6h122.5c16.9,0,30.6,13.7,30.6,30.6V645.5L300.9,645.5z"/><path d="M300.9,461.1c0,16.9-13.7,30.6-30.6,30.6H147.8c-16.9,0-30.6-13.7-30.6-30.6v-30.6c0-16.9,13.7-30.6,30.6-30.6h122.5c16.9,0,30.6,13.7,30.6,30.6V461.1L300.9,461.1z"/><path d="M591.9,829.9c0,16.9-13.7,30.6-30.6,30.6H438.7c-16.9,0-30.6-13.7-30.6-30.6v-30.6c0-16.9,13.7-30.6,30.6-30.6h122.5c16.9,0,30.6,13.7,30.6,30.6V829.9L591.9,829.9z"/><path d="M591.9,645.5c0,16.9-13.7,30.6-30.6,30.6H438.7c-16.9,0-30.6-13.7-30.6-30.6v-30.6c0-16.9,13.7-30.6,30.6-30.6h122.5c16.9,0,30.6,13.7,30.6,30.6V645.5L591.9,645.5z"/><path d="M591.9,461.1c0,16.9-13.7,30.6-30.6,30.6H438.7c-16.9,0-30.6-13.7-30.6-30.6v-30.6c0-16.9,13.7-30.6,30.6-30.6h122.5c16.9,0,30.6,13.7,30.6,30.6V461.1L591.9,461.1z"/><path d="M882.8,829.9c0,16.9-13.7,30.6-30.6,30.6H729.7c-16.9,0-30.6-13.7-30.6-30.6v-30.6c0-16.9,13.7-30.6,30.6-30.6h122.5c16.9,0,30.6,13.7,30.6,30.6V829.9L882.8,829.9z"/><path d="M882.8,645.5c0,16.9-13.7,30.6-30.6,30.6H729.7c-16.9,0-30.6-13.7-30.6-30.6v-30.6c0-16.9,13.7-30.6,30.6-30.6h122.5c16.9,0,30.6,13.7,30.6,30.6V645.5L882.8,645.5z"/><path d="M882.8,461.1c0,16.9-13.7,30.6-30.6,30.6H729.7c-16.9,0-30.6-13.7-30.6-30.6v-30.6c0-16.9,13.7-30.6,30.6-30.6h122.5c16.9,0,30.6,13.7,30.6,30.6V461.1L882.8,461.1z"/></g>
</svg>